<svg version="1.1" viewBox="0.0 0.0 960.0 720.0" height="32" width="32" fill="none" stroke="none" stroke-linecap="square" stroke-miterlimit="10" xmlns:xlink="http://www.w3.org/1999/xlink" xmlns="http://www.w3.org/2000/svg"><clipPath id="p.0"><path d="m0 0l960.0 0l0 720.0l-960.0 0l0 -720.0z" clip-rule="nonzero"/></clipPath><g clip-path="url(#p.0)"><path fill="#000000" fill-opacity="0.0" d="m0 0l960.0 0l0 720.0l-960.0 0z" fill-rule="evenodd"/><path fill="#3374f2" d="m726.7953 599.98956l0 0c-97.22235 97.22241 -243.49701 126.18091 -370.42892 73.335205c-126.931885 -52.845703 -209.43877 -177.0531 -208.94211 -314.54538c0.49665833 -137.4923 83.89871 -261.1004 211.20908 -313.0277c127.31036 -51.927315 273.37198 -21.912785 369.88943 76.009415l-106.16461 104.64163c-54.12506 -54.91281 -136.03351 -71.744354 -207.4266 -42.624557c-71.39313 29.119797 -118.16333 98.43674 -118.44183 175.53967c-0.27853394 77.102936 45.989685 146.75595 117.17056 176.39078c71.18088 29.634827 153.20874 13.395447 207.72913 -41.12491z" fill-rule="evenodd"/><path fill="#3374f2" d="m382.063 360.0l0 0c0 -54.08911 43.8479 -97.93701 97.93701 -97.93701l0 0c25.974518 0 50.885193 10.318329 69.25189 28.68509c18.36676 18.36676 28.68512 43.277405 28.68512 69.25192l0 0c0 54.08911 -43.8479 97.93701 -97.93701 97.93701l0 0c-54.08911 0 -97.93701 -43.8479 -97.93701 -97.93701z" fill-rule="evenodd"/></g></svg>